<svg fill="#fffff" viewBox="0 0 24 24" id="mail-notification" data-name="Flat Color" xmlns="http://www.w3.org/2000/svg" class="icon flat-color" stroke="#fffff"><g id="SVGRepo_bgCarrier" stroke-width="0"></g><g id="SVGRepo_tracerCarrier" stroke-linecap="round" stroke-linejoin="round"></g><g id="SVGRepo_iconCarrier"><path id="primary" d="M18.5,11A4.51,4.51,0,0,1,14,6.5,4.39,4.39,0,0,1,14.28,5H4A2,2,0,0,0,2,7V19a2,2,0,0,0,2,2H20a2,2,0,0,0,2-2V9.29A4.46,4.46,0,0,1,18.5,11Z" style="fill: #154296ff000000;"></path><path id="secondary" d="M12,14.72a2,2,0,0,1-1.25-.44L4.35,8.77a1,1,0,0,1,1.3-1.52L12,12.74l1.35-1.12a1,1,0,1,1,1.24,1.56l-1.38,1.1A2,2,0,0,1,12,14.72ZM18.5,3A3.5,3.5,0,1,0,22,6.5,3.5,3.5,0,0,0,18.5,3Z" style="fill: #154296ff;"></path></g></svg>